<?xml version="1.0" encoding="utf-8"?>
<!-- Generator: Adobe Illustrator 16.0.3, SVG Export Plug-In . SVG Version: 6.00 Build 0)  -->
<!DOCTYPE svg PUBLIC "-//W3C//DTD SVG 1.1//EN" "http://www.w3.org/Graphics/SVG/1.1/DTD/svg11.dtd">
<svg version="1.1" id="Layer_1" xmlns="http://www.w3.org/2000/svg" xmlns:xlink="http://www.w3.org/1999/xlink" x="0px" y="0px"
	 width="375px" height="190px" viewBox="0 0 375 190" enable-background="new 0 0 375 190" xml:space="preserve">
<text transform="matrix(1 0 0 1 1.8535 26)" fill="#333333" font-family="'Roboto-Regular'" font-size="26">35%</text>
<g id="Rectangle_3">
	<g>
		<rect x="5" y="48" fill="#4DBCA5" width="243" height="23"/>
	</g>
</g>
<image overflow="visible" width="1" height="108" id="Layer_118_copy_xA0_Image_2_" xlink:href="images/A03C2CDC.png"  transform="matrix(1 0 0 1 4 37)">
</image>
<image overflow="visible" width="369" height="1" id="Layer_118_copy_2_xA0_Image_2_" xlink:href="images/A03C2CDD.png"  transform="matrix(1 0 0 1 5 144)">
</image>
<image overflow="visible" width="329" height="5" id="Layer_135_xA0_Image_2_" xlink:href="images/A03C2CDB.png"  transform="matrix(1 0 0 1 28 144)">
</image>
<text transform="matrix(1 0 0 1 15 64)" fill="#FFFFFF" font-family="'Roboto-Regular'" font-size="12">Planned</text>
<g id="Rectangle_3_copy">
	<g>
		<rect x="5" y="78" fill="#E99400" width="130" height="23"/>
	</g>
</g>
<text transform="matrix(1 0 0 1 15 94)" fill="#FFFFFF" font-family="'Roboto-Regular'" font-size="12">Billable</text>
<g id="Rectangle_3_copy_4">
	<g>
		<rect x="5" y="108" fill="#369EC0" width="88" height="23"/>
	</g>
</g>
<text transform="matrix(1 0 0 1 15 124)" fill="#FFFFFF" font-family="'Roboto-Regular'" font-size="12">Actual</text>
<text id="_x31_0__20__30__40__50__60__70__80__90__100" transform="matrix(1 0 0 1 21.8643 164)"><tspan x="0" y="0" fill="#6E6E6E" font-family="'Roboto-Regular'" font-size="12">10 </tspan><tspan x="16.494" y="0" fill="#6E6E6E" font-family="'Roboto-Regular'" font-size="12" letter-spacing="16">	</tspan><tspan x="36" y="0" fill="#6E6E6E" font-family="'Roboto-Regular'" font-size="12">20</tspan><tspan x="49.512" y="0" fill="#6E6E6E" font-family="'Roboto-Regular'" font-size="12" letter-spacing="19">	</tspan><tspan x="72" y="0" fill="#6E6E6E" font-family="'Roboto-Regular'" font-size="12"> 30</tspan><tspan x="88.494" y="0" fill="#6E6E6E" font-family="'Roboto-Regular'" font-size="12" letter-spacing="16">	</tspan><tspan x="108" y="0" fill="#6E6E6E" font-family="'Roboto-Regular'" font-size="12"> 40</tspan><tspan x="124.494" y="0" fill="#6E6E6E" font-family="'Roboto-Regular'" font-size="12" letter-spacing="16">	</tspan><tspan x="144" y="0" fill="#6E6E6E" font-family="'Roboto-Regular'" font-size="12"> 50</tspan><tspan x="160.494" y="0" fill="#6E6E6E" font-family="'Roboto-Regular'" font-size="12" letter-spacing="16">	</tspan><tspan x="180" y="0" fill="#6E6E6E" font-family="'Roboto-Regular'" font-size="12"> 60 </tspan><tspan x="199.477" y="0" fill="#6E6E6E" font-family="'Roboto-Regular'" font-size="12" letter-spacing="13">	</tspan><tspan x="216" y="0" fill="#6E6E6E" font-family="'Roboto-Regular'" font-size="12">70 </tspan><tspan x="232.494" y="0" fill="#6E6E6E" font-family="'Roboto-Regular'" font-size="12" letter-spacing="16">	</tspan><tspan x="252.001" y="0" fill="#6E6E6E" font-family="'Roboto-Regular'" font-size="12">80</tspan><tspan x="265.512" y="0" fill="#6E6E6E" font-family="'Roboto-Regular'" font-size="12" letter-spacing="19">	</tspan><tspan x="288" y="0" fill="#6E6E6E" font-family="'Roboto-Regular'" font-size="12"> 90 </tspan><tspan x="307.477" y="0" fill="#6E6E6E" font-family="'Roboto-Regular'" font-size="12" letter-spacing="13">	</tspan><tspan x="324" y="0" fill="#6E6E6E" font-family="'Roboto-Regular'" font-size="12">100</tspan></text>
<text transform="matrix(1 0 0 1 159.1294 183)" fill="#6E6E6E" font-family="'Roboto-Regular'" font-size="12">Person / Day</text>
</svg>
