<?xml version="1.0" encoding="utf-8"?>
<!-- Generator: Adobe Illustrator 16.0.3, SVG Export Plug-In . SVG Version: 6.00 Build 0)  -->
<!DOCTYPE svg PUBLIC "-//W3C//DTD SVG 1.1//EN" "http://www.w3.org/Graphics/SVG/1.1/DTD/svg11.dtd">
<svg version="1.1" id="Layer_1" xmlns="http://www.w3.org/2000/svg" xmlns:xlink="http://www.w3.org/1999/xlink" x="0px" y="0px"
	 width="370px" height="130px" viewBox="0 0 370 130" enable-background="new 0 0 370 130" xml:space="preserve">
<image overflow="visible" width="341" height="52" id="Shape_13_xA0_Image" xlink:href="45076299.png"  transform="matrix(1 0 0 1 10 25)">
</image>
<image overflow="visible" width="262" height="44" id="Shape_14_xA0_Image" xlink:href="4507629B.png"  transform="matrix(1 0 0 1 8 37)">
</image>
<text transform="matrix(1 0 0 1 -1.1465 26)" fill="#333333" font-family="'Roboto-Regular'" font-size="26">12%</text>
<image overflow="visible" width="1" height="48" id="Layer_118_copy_xA0_Image" xlink:href="images/4507629E.png"  transform="matrix(1 0 0 1 1 37)">
</image>
<image overflow="visible" width="369" height="1" id="Layer_118_copy_2_xA0_Image" xlink:href="images/4507629F.png"  transform="matrix(1 0 0 1 2 84)">
</image>
<image overflow="visible" width="329" height="5" id="Layer_135_xA0_Image" xlink:href="images/4507629A.png"  transform="matrix(1 0 0 1 25 84)">
</image>
<text id="_x31_0__20__30__40__50__60__70__80__90__100_1_" transform="matrix(1 0 0 1 18.8643 104)"><tspan x="0" y="0" fill="#6E6E6E" font-family="'Roboto-Regular'" font-size="12">10 </tspan><tspan x="16.494" y="0" fill="#6E6E6E" font-family="'Roboto-Regular'" font-size="12" letter-spacing="16">	</tspan><tspan x="36" y="0" fill="#6E6E6E" font-family="'Roboto-Regular'" font-size="12">20</tspan><tspan x="49.512" y="0" fill="#6E6E6E" font-family="'Roboto-Regular'" font-size="12" letter-spacing="19">	</tspan><tspan x="72" y="0" fill="#6E6E6E" font-family="'Roboto-Regular'" font-size="12"> 30</tspan><tspan x="88.494" y="0" fill="#6E6E6E" font-family="'Roboto-Regular'" font-size="12" letter-spacing="16">	</tspan><tspan x="108" y="0" fill="#6E6E6E" font-family="'Roboto-Regular'" font-size="12"> 40</tspan><tspan x="124.494" y="0" fill="#6E6E6E" font-family="'Roboto-Regular'" font-size="12" letter-spacing="16">	</tspan><tspan x="144" y="0" fill="#6E6E6E" font-family="'Roboto-Regular'" font-size="12"> 50</tspan><tspan x="160.494" y="0" fill="#6E6E6E" font-family="'Roboto-Regular'" font-size="12" letter-spacing="16">	</tspan><tspan x="180" y="0" fill="#6E6E6E" font-family="'Roboto-Regular'" font-size="12"> 60 </tspan><tspan x="199.477" y="0" fill="#6E6E6E" font-family="'Roboto-Regular'" font-size="12" letter-spacing="13">	</tspan><tspan x="216" y="0" fill="#6E6E6E" font-family="'Roboto-Regular'" font-size="12">70 </tspan><tspan x="232.494" y="0" fill="#6E6E6E" font-family="'Roboto-Regular'" font-size="12" letter-spacing="16">	</tspan><tspan x="252.001" y="0" fill="#6E6E6E" font-family="'Roboto-Regular'" font-size="12">80</tspan><tspan x="265.512" y="0" fill="#6E6E6E" font-family="'Roboto-Regular'" font-size="12" letter-spacing="19">	</tspan><tspan x="288" y="0" fill="#6E6E6E" font-family="'Roboto-Regular'" font-size="12"> 90 </tspan><tspan x="307.477" y="0" fill="#6E6E6E" font-family="'Roboto-Regular'" font-size="12" letter-spacing="13">	</tspan><tspan x="324" y="0" fill="#6E6E6E" font-family="'Roboto-Regular'" font-size="12">100</tspan></text>
<text transform="matrix(1 0 0 1 156.1294 123)" fill="#6E6E6E" font-family="'Roboto-Regular'" font-size="12">Person / Day</text>
</svg>
